<?xml version="1.0" encoding="UTF-8" standalone="no"?>
<svg
   viewBox="0 0 22 22"
   version="1.1"
   id="svg1"
   sodipodi:docname="overlaydimmer.svg"
   xml:space="preserve"
   inkscape:version="1.4.2 (ebf0e940d0, 2025-05-08)"
   inkscape:export-filename="overlaydimmer.svg"
   inkscape:export-xdpi="300"
   inkscape:export-ydpi="300"
   width="44"
   height="44"
   xmlns:inkscape="http://www.inkscape.org/namespaces/inkscape"
   xmlns:sodipodi="http://sodipodi.sourceforge.net/DTD/sodipodi-0.dtd"
   xmlns="http://www.w3.org/2000/svg"
   xmlns:svg="http://www.w3.org/2000/svg"><defs
     id="defs1" /><sodipodi:namedview
     id="namedview1"
     pagecolor="#ffffff"
     bordercolor="#000000"
     borderopacity="0.25"
     inkscape:showpageshadow="2"
     inkscape:pageopacity="0.0"
     inkscape:pagecheckerboard="true"
     inkscape:deskcolor="#d1d1d1"
     showguides="false"
     inkscape:zoom="17.088414"
     inkscape:cx="14.366459"
     inkscape:cy="26.216594"
     inkscape:window-width="2560"
     inkscape:window-height="1371"
     inkscape:window-x="0"
     inkscape:window-y="0"
     inkscape:window-maximized="1"
     inkscape:current-layer="svg1"><sodipodi:guide
       position="1.489938,5.6843345"
       orientation="1,0"
       id="guide4"
       inkscape:locked="false" /><sodipodi:guide
       position="4.1270609,5.2235455"
       orientation="1,0"
       id="guide5"
       inkscape:locked="false" /><sodipodi:guide
       position="8.040194,4.6747035"
       orientation="1,0"
       id="guide6"
       inkscape:locked="false" /><sodipodi:guide
       position="10.483553,4.676805"
       orientation="1,0"
       id="guide7"
       inkscape:locked="false" /></sodipodi:namedview><path
     d="M 20,16 H 2 V 4 H 20 M 20,2 H 2 C 0.8954305,2 0,2.8954305 0,4 v 12 c 0,1.104569 0.8954305,2 2,2 h 6 v 2 h 6 v -2 h 6 c 1.104569,0 2,-0.895431 2,-2 V 4 C 22,2.8954305 21.104569,2 20,2 Z"
     id="path1"
     sodipodi:nodetypes="ccccsssssccccssss"
     style="fill:#ffffff" /><path
     d="m 14.920333,13.03793 c -1.665,1.845 -4.51,2 -6.3650021,0.32 -1.835,-1.665 -1.98,-4.5099994 -0.315,-6.3549994 0.7650019,-0.84 1.8150021,-1.365 2.9500021,-1.465 -1.6550002,1.85 -1.5000002,4.6949994 0.365,6.3549994 0.815,0.74 1.89,1.145 3,1.145 0.125,0 0.25,0 0.365,0 z"
     id="path1-5"
     style="fill:#ffffff;stroke-width:0.5" /><path
     d="m 14.075706,8.011422 -0.279155,0.609267 -0.27694,-0.609267 -0.609267,-0.27694 0.609267,-0.279155 0.27694,-0.6070518 0.279155,0.6070518 0.607052,0.279155 z"
     id="path1-2"
     style="fill:#ffffff;stroke-width:0.221552" /><path
     d="M 12.516448,7.0323272 12.344827,7.406896 12.174569,7.0323272 11.8,6.8620682 l 0.374569,-0.17162 0.170258,-0.373207 0.171621,0.373207 0.373207,0.17162 z"
     id="path1-2-7"
     style="fill:#ffffff;stroke-width:0.136207" /><path
     d="m 12.570223,8.093749 -0.07712,0.168319 -0.07651,-0.168319 -0.168319,-0.07651 0.168319,-0.07712 0.07651,-0.167708 0.07712,0.167709 0.167708,0.07712 z"
     id="path1-2-7-6"
     style="fill:#ffffff;stroke-width:0.061207" /></svg>
