<?xml version="1.0" encoding="UTF-8" standalone="no"?>
<svg
   viewBox="0 0 24 24"
   version="1.1"
   id="svg1"
   sodipodi:docname="OverlayDimmer-light.svg"
   xml:space="preserve"
   inkscape:version="1.4.2 (ebf0e940d0, 2025-05-08)"
   xmlns:inkscape="http://www.inkscape.org/namespaces/inkscape"
   xmlns:sodipodi="http://sodipodi.sourceforge.net/DTD/sodipodi-0.dtd"
   xmlns="http://www.w3.org/2000/svg"
   xmlns:svg="http://www.w3.org/2000/svg"><defs
     id="defs1" /><sodipodi:namedview
     id="namedview1"
     pagecolor="#ffffff"
     bordercolor="#000000"
     borderopacity="0.25"
     inkscape:showpageshadow="2"
     inkscape:pageopacity="0.0"
     inkscape:pagecheckerboard="true"
     inkscape:deskcolor="#d1d1d1"
     showguides="false"
     inkscape:zoom="48.333333"
     inkscape:cx="12"
     inkscape:cy="11.648276"
     inkscape:window-width="2560"
     inkscape:window-height="1371"
     inkscape:window-x="0"
     inkscape:window-y="0"
     inkscape:window-maximized="1"
     inkscape:current-layer="svg1"><sodipodi:guide
       position="2.9798761,13.368669"
       orientation="1,0"
       id="guide4"
       inkscape:locked="false" /><sodipodi:guide
       position="8.2541218,12.447091"
       orientation="1,0"
       id="guide5"
       inkscape:locked="false" /><sodipodi:guide
       position="16.080388,11.349407"
       orientation="1,0"
       id="guide6"
       inkscape:locked="false" /><sodipodi:guide
       position="20.967107,11.35361"
       orientation="1,0"
       id="guide7"
       inkscape:locked="false" /></sodipodi:namedview><path
     d="M 21,17 H 3 V 5 H 21 M 21,3 H 3 C 1.8954305,3 1,3.8954305 1,5 v 12 c 0,1.104569 0.8954305,2 2,2 h 6 v 2 h 6 v -2 h 6 c 1.104569,0 2,-0.895431 2,-2 V 5 C 23,3.8954305 22.104569,3 21,3 Z"
     id="path1"
     sodipodi:nodetypes="ccccsssssccccssss"
     style="fill:#ffffff" /><path
     d="m 15.920333,14.03793 c -1.665,1.845 -4.51,2 -6.3650019,0.32 -1.835,-1.665 -1.98,-4.5099994 -0.315,-6.3549994 0.7650019,-0.84 1.8150019,-1.365 2.9500019,-1.465 -1.655,1.85 -1.5,4.6949994 0.365,6.3549994 0.815,0.74 1.89,1.145 3,1.145 0.125,0 0.25,0 0.365,0 z"
     id="path1-5"
     style="fill:#ffffff;stroke-width:0.5" /><path
     d="m 15.075706,9.011422 -0.279155,0.609267 -0.27694,-0.609267 -0.609267,-0.27694 0.609267,-0.279155 0.27694,-0.6070518 0.279155,0.6070518 0.607052,0.279155 z"
     id="path1-2"
     style="stroke-width:0.221552;fill:#ffffff" /><path
     d="M 13.516448,8.0323272 13.344827,8.406896 13.174569,8.0323272 12.8,7.8620682 l 0.374569,-0.17162 0.170258,-0.373207 0.171621,0.373207 0.373207,0.17162 z"
     id="path1-2-7"
     style="stroke-width:0.136207;fill:#ffffff" /><path
     d="m 13.570223,9.093749 -0.07712,0.168319 -0.07651,-0.168319 -0.168319,-0.07651 0.168319,-0.07712 0.07651,-0.167708 0.07712,0.167709 0.167708,0.07712 z"
     id="path1-2-7-6"
     style="stroke-width:0.061207;fill:#ffffff" /></svg>
